<?xml version="1.0" encoding="UTF-8" standalone="no"?>
<!DOCTYPE svg PUBLIC "-//W3C//DTD SVG 1.1//EN" "http://www.w3.org/Graphics/SVG/1.1/DTD/svg11.dtd">
<svg version="1.1" xmlns="http://www.w3.org/2000/svg" xmlns:xlink="http://www.w3.org/1999/xlink" preserveAspectRatio="xMidYMid meet" viewBox="0 0 50 40" width="640" height="640"><defs><path d="M315.63 195.4C315.63 270.3 254.82 331.11 179.92 331.11C105.02 331.11 44.21 270.3 44.21 195.4C44.21 120.49 105.02 59.68 179.92 59.68C254.82 59.68 315.63 120.49 315.63 195.4Z" id="c7Xs0M6ANC"></path><path d="M415.87 296.59C426.92 296.59 435.87 305.54 435.87 316.59C435.87 358.78 435.87 465.35 435.87 507.54C435.87 518.59 426.92 527.54 415.87 527.54C375.59 527.54 274.73 527.54 234.44 527.54C223.4 527.54 214.44 518.59 214.44 507.54C214.44 465.35 214.44 358.78 214.44 316.59C214.44 305.54 223.4 296.59 234.44 296.59C274.73 296.59 375.59 296.59 415.87 296.59Z" id="alRoi5gEA"></path><path d="M370.4 137.06L544.21 137.06L544.21 377.54L370.4 377.54L370.4 137.06Z" id="bgSd0wHrn"></path></defs><g><g><g><use xlink:href="#c7Xs0M6ANC" opacity="1" fill="#108af0" fill-opacity="1"></use></g><g><use xlink:href="#alRoi5gEA" opacity="1" fill="#ec721e" fill-opacity="1"></use></g><g><use xlink:href="#bgSd0wHrn" opacity="1" fill="#eed4ab" fill-opacity="1"></use></g></g></g></svg>